# xmcd
# 
# Track frame offsets:
#     150
#     15987
#     32969
#     54942
#     78476
#     109331
#     127426
#     142514
#     160795
#     182049
#     204210
#     222392
#     244031
# 
# Disc length: 3501
# 
# Revision: 0
# Processed by: cddbd v1.5.2PL0 Copyright (c) Steve Scherf et al.
# Submitted via: fre:ac v1.1beta1pre3
# 
DISCID=ac0dab0d
DTITLE=Kevin Selfe - Buy My Soul Back
DYEAR=2015
DGENRE=Blues
TTITLE0=Picking Empty Pockets
TTITLE1=Fixed It Til It's Broke
TTITLE2=Buy My Soul Back
TTITLE3=Digging My Own Grave
TTITLE4=All Partied Out
TTITLE5=Keep Pushing or Die Trying
TTITLE6=Bluesman Without The Blues
TTITLE7=I'm On Fire
TTITLE8=Don't Tear Me Down
TTITLE9=Double Dipping
TTITLE10=Virginia Farm
TTITLE11=Pig Pickin'
TTITLE12=Starting Up At The Bottom
EXTD=
EXTT0=
EXTT1=
EXTT2=
EXTT3=
EXTT4=
EXTT5=
EXTT6=
EXTT7=
EXTT8=
EXTT9=
EXTT10=
EXTT11=
EXTT12=
PLAYORDER=
